<svg width="34" height="34" viewBox="0 0 34 34" fill="none" xmlns="http://www.w3.org/2000/svg">
<path d="M30.0959 0.335938H3.90541C2.95821 0.335938 2.0498 0.712212 1.38003 1.38198C0.710259 2.05176 0.333984 2.96016 0.333984 3.90737L0.333984 30.0978C0.333984 31.045 0.710259 31.9535 1.38003 32.6232C2.0498 33.293 2.95821 33.6693 3.90541 33.6693H14.1175V22.3367H9.42997V17.0026H14.1175V12.9371C14.1175 8.31287 16.8704 5.75856 21.087 5.75856C23.1063 5.75856 25.2179 6.11868 25.2179 6.11868V10.6574H22.8913C20.5989 10.6574 19.8838 12.08 19.8838 13.5391V17.0026H25.0014L24.1829 22.3367H19.8838V33.6693H30.0959C31.0431 33.6693 31.9515 33.293 32.6213 32.6232C33.291 31.9535 33.6673 31.045 33.6673 30.0978V3.90737C33.6673 2.96016 33.291 2.05176 32.6213 1.38198C31.9515 0.712212 31.0431 0.335938 30.0959 0.335938Z" fill="#2B4267"/>
</svg>
