<svg width="34" height="34" viewBox="0 0 34 34" fill="none" xmlns="http://www.w3.org/2000/svg">
<path d="M30.0952 0.333374H3.90477C2.95757 0.333374 2.04916 0.709649 1.37939 1.37942C0.709618 2.04919 0.333344 2.9576 0.333344 3.9048L0.333344 30.0953C0.333344 31.0425 0.709618 31.9509 1.37939 32.6207C2.04916 33.2904 2.95757 33.6667 3.90477 33.6667H14.1168V22.3341H9.42933V17H14.1168V12.9346C14.1168 8.31031 16.8698 5.75599 21.0863 5.75599C23.1057 5.75599 25.2173 6.11611 25.2173 6.11611V10.6548H22.8906C20.5982 10.6548 19.8832 12.0774 19.8832 13.5365V17H25.0008L24.1823 22.3341H19.8832V33.6667H30.0952C31.0424 33.6667 31.9509 33.2904 32.6206 32.6207C33.2904 31.9509 33.6667 31.0425 33.6667 30.0953V3.9048C33.6667 2.9576 33.2904 2.04919 32.6206 1.37942C31.9509 0.709649 31.0424 0.333374 30.0952 0.333374Z" fill="white"/>
</svg>
