<svg width="34" height="34" viewBox="0 0 34 34" fill="none" xmlns="http://www.w3.org/2000/svg">
<path d="M18.7133 0.335058C19.9295 0.330391 21.1458 0.342615 22.3617 0.371725L22.685 0.383392C23.0583 0.396725 23.4267 0.413392 23.8717 0.433392C25.645 0.516725 26.855 0.796725 27.9167 1.20839C29.0167 1.63173 29.9433 2.20506 30.87 3.13173C31.7173 3.9644 32.373 4.97164 32.7917 6.08339C33.2033 7.14506 33.4833 8.35672 33.5667 10.1301C33.5867 10.5734 33.6033 10.9434 33.6167 11.3167L33.6267 11.6401C33.6563 12.8554 33.6691 14.0711 33.665 15.2867L33.6667 16.5301V18.7134C33.6708 19.9296 33.658 21.1459 33.6283 22.3617L33.6183 22.6851C33.605 23.0584 33.5883 23.4267 33.5683 23.8717C33.485 25.6451 33.2017 26.8551 32.7917 27.9167C32.3744 29.0297 31.7185 30.0377 30.87 30.8701C30.0366 31.7173 29.0288 32.373 27.9167 32.7917C26.855 33.2034 25.645 33.4834 23.8717 33.5667C23.4267 33.5867 23.0583 33.6034 22.685 33.6167L22.3617 33.6267C21.1458 33.6564 19.9296 33.6691 18.7133 33.6651L17.47 33.6667H15.2883C14.0721 33.6708 12.8559 33.6581 11.64 33.6284L11.3167 33.6184C10.921 33.6041 10.5254 33.5874 10.13 33.5684C8.35666 33.4851 7.14666 33.2017 6.08333 32.7917C4.97113 32.374 3.96372 31.7181 3.13166 30.8701C2.2834 30.0372 1.62704 29.0293 1.20833 27.9167C0.796662 26.8551 0.516662 25.6451 0.433329 23.8717C0.414767 23.4763 0.3981 23.0807 0.383329 22.6851L0.374995 22.3617C0.344268 21.1459 0.330378 19.9296 0.333329 18.7134V15.2867C0.328677 14.0711 0.340901 12.8554 0.369995 11.6401L0.381662 11.3167C0.394995 10.9434 0.411662 10.5734 0.431662 10.1301C0.514995 8.35506 0.794995 7.14673 1.20666 6.08339C1.62562 4.97109 2.28327 3.96413 3.13333 3.13339C3.96482 2.28465 4.9716 1.62768 6.08333 1.20839C7.14666 0.796725 8.35499 0.516725 10.13 0.433392L11.3167 0.383392L11.64 0.375059C12.8553 0.344347 14.071 0.330456 15.2867 0.333392L18.7133 0.335058ZM17 8.66839C15.8958 8.65278 14.7996 8.85677 13.775 9.26851C12.7503 9.68024 11.8177 10.2915 11.0314 11.0668C10.2451 11.8421 9.62066 12.766 9.19447 13.7847C8.76828 14.8034 8.54881 15.8966 8.54881 17.0009C8.54881 18.1052 8.76828 19.1984 9.19447 20.2171C9.62066 21.2358 10.2451 22.1597 11.0314 22.935C11.8177 23.7103 12.7503 24.3215 13.775 24.7333C14.7996 25.145 15.8958 25.349 17 25.3334C19.2101 25.3334 21.3297 24.4554 22.8925 22.8926C24.4554 21.3298 25.3333 19.2102 25.3333 17.0001C25.3333 14.7899 24.4554 12.6703 22.8925 11.1075C21.3297 9.5447 19.2101 8.66839 17 8.66839ZM17 12.0017C17.6642 11.9895 18.3241 12.1097 18.9413 12.3554C19.5585 12.6011 20.1206 12.9673 20.5946 13.4326C21.0687 13.898 21.4453 14.4531 21.7024 15.0656C21.9595 15.6781 22.092 16.3358 22.0921 17C22.0922 17.6643 21.96 18.322 21.703 18.9346C21.4461 19.5472 21.0697 20.1025 20.5958 20.568C20.1219 21.0335 19.56 21.3998 18.9429 21.6457C18.3258 21.8916 17.6658 22.0121 17.0017 22.0001C15.6756 22.0001 14.4038 21.4733 13.4661 20.5356C12.5284 19.5979 12.0017 18.3261 12.0017 17.0001C12.0017 15.674 12.5284 14.4022 13.4661 13.4645C14.4038 12.5268 15.6756 12.0001 17.0017 12.0001L17 12.0017ZM25.75 6.16839C25.2123 6.18991 24.7038 6.41864 24.331 6.80668C23.9582 7.19471 23.75 7.71195 23.75 8.25006C23.75 8.78817 23.9582 9.30541 24.331 9.69344C24.7038 10.0815 25.2123 10.3102 25.75 10.3317C26.3025 10.3317 26.8324 10.1122 27.2231 9.72153C27.6138 9.33083 27.8333 8.80093 27.8333 8.24839C27.8333 7.69586 27.6138 7.16595 27.2231 6.77525C26.8324 6.38455 26.3025 6.16506 25.75 6.16506V6.16839Z" fill="white"/>
</svg>
