<svg width="34" height="34" viewBox="0 0 34 34" fill="none" xmlns="http://www.w3.org/2000/svg">
<path d="M18.713 0.337988C19.9292 0.333321 21.1454 0.345545 22.3613 0.374655L22.6847 0.386322C23.058 0.399655 23.4263 0.416322 23.8713 0.436322C25.6447 0.519655 26.8547 0.799655 27.9163 1.21132C29.0163 1.63466 29.943 2.20799 30.8697 3.13465C31.7169 3.96733 32.3727 4.97457 32.7913 6.08632C33.203 7.14799 33.483 8.35965 33.5663 10.133C33.5863 10.5763 33.603 10.9463 33.6163 11.3197L33.6263 11.643C33.6559 12.8583 33.6687 14.074 33.6647 15.2897L33.6663 16.533V18.7163C33.6704 19.9326 33.6577 21.1488 33.628 22.3647L33.618 22.688C33.6047 23.0613 33.588 23.4297 33.568 23.8747C33.4847 25.648 33.2013 26.858 32.7913 27.9197C32.3741 29.0326 31.7182 30.0407 30.8697 30.873C30.0363 31.7202 29.0285 32.3759 27.9163 32.7947C26.8547 33.2063 25.6447 33.4863 23.8713 33.5697C23.4263 33.5897 23.058 33.6063 22.6847 33.6197L22.3613 33.6297C21.1454 33.6593 19.9292 33.6721 18.713 33.668L17.4697 33.6697H15.288C14.0718 33.6738 12.8555 33.661 11.6397 33.6313L11.3163 33.6213C10.9207 33.607 10.5251 33.5903 10.1297 33.5713C8.35633 33.488 7.14633 33.2047 6.08299 32.7947C4.9708 32.3769 3.96339 31.721 3.13133 30.873C2.28307 30.0401 1.6267 29.0323 1.20799 27.9197C0.796326 26.858 0.516326 25.648 0.432993 23.8747C0.414431 23.4792 0.397764 23.0836 0.382993 22.688L0.37466 22.3647C0.343932 21.1488 0.330042 19.9326 0.332993 18.7163V15.2897C0.328341 14.074 0.340565 12.8583 0.36966 11.643L0.381326 11.3197C0.39466 10.9463 0.411326 10.5763 0.431326 10.133C0.51466 8.35799 0.794659 7.14966 1.20633 6.08632C1.62528 4.97402 2.28293 3.96706 3.13299 3.13632C3.96448 2.28758 4.97126 1.63061 6.08299 1.21132C7.14633 0.799655 8.35466 0.519655 10.1297 0.436322L11.3163 0.386322L11.6397 0.377988C12.855 0.347276 14.0706 0.333386 15.2863 0.336322L18.713 0.337988ZM16.9997 8.67132C15.8955 8.65571 14.7993 8.8597 13.7746 9.27143C12.75 9.68317 11.8174 10.2945 11.0311 11.0697C10.2447 11.845 9.62033 12.7689 9.19414 13.7876C8.76795 14.8063 8.54848 15.8996 8.54848 17.0038C8.54848 18.1081 8.76795 19.2013 9.19414 20.2201C9.62033 21.2388 10.2447 22.1626 11.0311 22.9379C11.8174 23.7132 12.75 24.3245 13.7746 24.7362C14.7993 25.148 15.8955 25.3519 16.9997 25.3363C19.2098 25.3363 21.3294 24.4583 22.8922 22.8955C24.455 21.3327 25.333 19.2131 25.333 17.003C25.333 14.7929 24.455 12.6732 22.8922 11.1104C21.3294 9.54763 19.2098 8.67132 16.9997 8.67132ZM16.9997 12.0047C17.6638 11.9924 18.3238 12.1127 18.941 12.3583C19.5582 12.604 20.1202 12.9702 20.5943 13.4356C21.0684 13.9009 21.445 14.456 21.7021 15.0686C21.9592 15.6811 22.0917 16.3387 22.0918 17.003C22.0919 17.6673 21.9596 18.3249 21.7027 18.9375C21.4458 19.5501 21.0694 20.1054 20.5955 20.5709C20.1216 21.0364 19.5596 21.4028 18.9425 21.6487C18.3254 21.8946 17.6655 22.015 17.0013 22.003C15.6752 22.003 14.4035 21.4762 13.4658 20.5385C12.5281 19.6008 12.0013 18.3291 12.0013 17.003C12.0013 15.6769 12.5281 14.4051 13.4658 13.4675C14.4035 12.5298 15.6752 12.003 17.0013 12.003L16.9997 12.0047ZM25.7497 6.17132C25.212 6.19284 24.7035 6.42157 24.3307 6.80961C23.9579 7.19764 23.7496 7.71488 23.7496 8.25299C23.7496 8.7911 23.9579 9.30834 24.3307 9.69637C24.7035 10.0844 25.212 10.3131 25.7497 10.3347C26.3022 10.3347 26.8321 10.1152 27.2228 9.72446C27.6135 9.33376 27.833 8.80386 27.833 8.25132C27.833 7.69879 27.6135 7.16888 27.2228 6.77818C26.8321 6.38748 26.3022 6.16799 25.7497 6.16799V6.17132Z" fill="#2B4267"/>
</svg>
