<svg width="34" height="34" viewBox="0 0 34 34" fill="none" xmlns="http://www.w3.org/2000/svg">
<path d="M31.2864 0.335938H2.7075C1.39797 0.335938 0.333984 1.41481 0.333984 2.73921V31.266C0.333984 32.5904 1.39797 33.6693 2.7075 33.6693H31.2864C32.5959 33.6693 33.6673 32.5904 33.6673 31.266V2.73921C33.6673 1.41481 32.5959 0.335938 31.2864 0.335938ZM10.4084 28.9074H5.46791V12.9996H10.4158V28.9074H10.4084ZM7.93815 10.827C6.35333 10.827 5.07357 9.53981 5.07357 7.96243C5.07357 6.38504 6.35333 5.09784 7.93815 5.09784C9.51553 5.09784 10.8027 6.38504 10.8027 7.96243C10.8027 9.54725 9.52297 10.827 7.93815 10.827ZM28.9277 28.9074H23.9873V21.1693C23.9873 19.324 23.9501 16.9505 21.4203 16.9505C18.8459 16.9505 18.4515 18.9594 18.4515 21.0353V28.9074H13.5111V12.9996H18.2507V15.1722H18.3176C18.9798 13.9222 20.5944 12.6053 22.9977 12.6053C27.9977 12.6053 28.9277 15.9014 28.9277 20.1871V28.9074Z" fill="#2B4267"/>
</svg>
