<svg width="34" height="34" viewBox="0 0 34 34" fill="none" xmlns="http://www.w3.org/2000/svg">
<path d="M31.2857 0.333374H2.70686C1.39733 0.333374 0.333344 1.41224 0.333344 2.73665V31.2634C0.333344 32.5878 1.39733 33.6667 2.70686 33.6667H31.2857C32.5952 33.6667 33.6667 32.5878 33.6667 31.2634V2.73665C33.6667 1.41224 32.5952 0.333374 31.2857 0.333374ZM10.4077 28.9048H5.46727V12.9971H10.4152V28.9048H10.4077ZM7.93751 10.8244C6.35269 10.8244 5.07293 9.53724 5.07293 7.95986C5.07293 6.38248 6.35269 5.09528 7.93751 5.09528C9.51489 5.09528 10.8021 6.38248 10.8021 7.95986C10.8021 9.54468 9.52233 10.8244 7.93751 10.8244ZM28.9271 28.9048H23.9866V21.1667C23.9866 19.3215 23.9494 16.948 21.4197 16.948C18.8452 16.948 18.4509 18.9569 18.4509 21.0328V28.9048H13.5104V12.9971H18.25V15.1697H18.317C18.9792 13.9197 20.5938 12.6027 22.997 12.6027C27.997 12.6027 28.9271 15.8988 28.9271 20.1846V28.9048Z" fill="white"/>
</svg>
