<svg width="143" height="70" viewBox="0 0 143 70" fill="none" xmlns="http://www.w3.org/2000/svg">
<path fill-rule="evenodd" clip-rule="evenodd" d="M49.2887 34.5508C46.8521 34.5508 45.0366 33.9772 43.8418 32.83C42.6472 31.6825 41.9909 30.2338 41.8723 28.4832H44.4271C44.522 29.6897 44.9776 30.6356 45.7934 31.3216C46.6095 32.0077 47.7745 32.3511 49.2887 32.3511C50.7793 32.3511 51.9443 32.0726 52.7838 31.5113C53.6239 30.9549 54.0438 30.2098 54.0438 29.2873C54.0438 28.335 53.6592 27.6314 52.8902 27.1642C52.1217 26.7025 51.1992 26.3896 50.1107 26.2236C49.0225 26.0523 47.9285 25.8574 46.8287 25.6322C45.7227 25.4019 44.7882 24.911 44.0194 24.1539C43.2503 23.3968 42.8661 22.3323 42.8661 20.9604C42.8661 19.4936 43.4692 18.2397 44.6757 17.1989C45.8822 16.1581 47.5145 15.6374 49.5725 15.6374C51.8438 15.6374 53.5231 16.2171 54.6115 17.3763C55.6997 18.5354 56.3148 19.8603 56.4565 21.3505H53.9374C53.8191 20.3097 53.393 19.4638 52.6599 18.8133C51.9265 18.1629 50.8739 17.8376 49.5018 17.8376C48.1532 17.8376 47.1183 18.1097 46.3965 18.6596C45.6753 19.2098 45.3145 19.9135 45.3145 20.7594C45.3145 21.5162 45.5982 22.1135 46.1662 22.545C46.7398 22.9831 47.4259 23.2963 48.2301 23.4798C49.0345 23.6689 49.9217 23.8757 50.8915 24.1007C51.8555 24.3254 52.7604 24.5384 53.6002 24.7333C54.4403 24.9285 55.1322 25.4194 55.676 26.2061C56.2201 26.9927 56.4922 27.9981 56.4922 29.2283C56.4922 30.6952 55.8709 31.9487 54.6294 32.9898C53.3875 34.0304 51.6071 34.5508 49.2887 34.5508Z" fill="white"/>
<path fill-rule="evenodd" clip-rule="evenodd" d="M34.7749 26.7443V16.0631H37.2949V34.125H34.8816V31.4993C34.4798 32.2564 33.7879 32.9542 32.8058 33.5926C31.8242 34.2317 30.5643 34.5508 29.0264 34.5508C26.8506 34.5508 25.1825 33.9182 24.0233 32.6523C22.8644 31.3871 22.2847 29.7131 22.2847 27.6314V16.0631H24.804V27.099C24.804 30.6005 26.3536 32.3511 29.4524 32.3511C30.99 32.3511 32.2617 31.8719 33.2672 30.9137C34.2726 29.9559 34.7749 28.5662 34.7749 26.7443Z" fill="white"/>
<path fill-rule="evenodd" clip-rule="evenodd" d="M65.4917 33.8454V34.5508H62.9723C62.9723 29.0983 62.9723 23.6452 62.9723 18.1927H58.8207V16.0631H62.9723V10.9183H65.4917V16.0631H69.6433V18.1927H65.4917C65.4917 23.4102 65.4917 28.6281 65.4917 33.8454Z" fill="white"/>
<path fill-rule="evenodd" clip-rule="evenodd" d="M13.5553 26.2837V8.9312H16.1457V26.2124C16.1457 28.7674 15.424 30.802 13.9808 32.3159C12.5379 33.8295 10.5629 34.5869 8.05518 34.5869C5.57116 34.5869 3.60755 33.8652 2.16464 32.4223C0.72145 30.9794 0 29.0275 0 26.5674L0.0710035 25.0062H2.69675C2.64941 25.4082 2.62604 25.9286 2.62604 26.5674C2.62604 28.2473 3.09911 29.613 4.04498 30.6658C4.99142 31.7187 6.32796 32.2449 8.05518 32.2449C9.80577 32.2449 11.1598 31.7245 12.118 30.6834C13.0761 29.6428 13.5553 28.176 13.5553 26.2837Z" fill="white"/>
<path d="M10.468 69.5739H7.7002L18.0615 44.3803H20.8648L31.2616 69.5739H28.3874L26.01 63.6836H12.8809L10.468 69.5739ZM19.4809 47.5384H19.4099L13.8035 61.2707H25.0519L19.4809 47.5384Z" fill="white"/>
<path d="M40.2701 69.9997C37.8336 69.9997 36.0121 69.432 34.8056 68.2965C33.6228 67.1373 32.9723 65.6825 32.854 63.932H35.4088C35.5034 65.1384 35.9529 66.0847 36.7572 66.7707C37.5852 67.4567 38.7562 67.7997 40.2701 67.7997C41.7605 67.7997 42.9196 67.5277 43.7476 66.9836C44.5992 66.4158 45.025 65.6707 45.025 64.7481C45.025 63.8018 44.6347 63.104 43.854 62.6545C43.097 62.1814 42.1745 61.8621 41.0863 61.6965C39.9981 61.5309 38.8981 61.3298 37.7863 61.0932C36.6981 60.8567 35.7637 60.3599 34.983 59.6029C34.226 58.8459 33.8475 57.7814 33.8475 56.4094C33.8475 54.9427 34.4508 53.6889 35.6572 52.6481C36.8637 51.6072 38.4959 51.0868 40.554 51.0868C42.825 51.0868 44.5046 51.6663 45.5928 52.8255C46.6809 53.9846 47.296 55.3094 47.4379 56.7997H44.9186C44.8003 55.7588 44.3745 54.919 43.6411 54.2803C42.9078 53.618 41.8551 53.2868 40.483 53.2868C39.1347 53.2868 38.0938 53.5706 37.3605 54.1384C36.6508 54.7061 36.2959 55.4276 36.2959 56.3029C36.2959 57.0836 36.568 57.6986 37.1121 58.1481C37.6798 58.5975 38.3777 58.8932 39.2056 59.0352C40.0336 59.1535 40.9207 59.319 41.8669 59.5319C42.8368 59.7449 43.7358 59.9814 44.5637 60.2416C45.3917 60.5018 46.0777 61.0104 46.6218 61.7674C47.1895 62.5244 47.4734 63.4943 47.4734 64.6771C47.4734 66.1438 46.8465 67.3976 45.5928 68.4384C44.3626 69.4793 42.5884 69.9997 40.2701 69.9997Z" fill="white"/>
<path d="M64.8573 51.5126H68.2283L60.7411 58.9642L68.796 69.5739H65.6734L58.9669 60.6674L54.8863 64.6416V69.5739H52.3669V42.9609H54.8863V61.5545L64.8573 51.5126Z" fill="white"/>
<path d="M98.9668 44.3806V69.5743H93.7861V59.1775H83.2473V69.5743H78.0667V44.3806H83.2473V54.4226H93.7861V44.3806H98.9668Z" fill="#FDC500"/>
<path d="M108.663 47.7161C108.095 48.2839 107.362 48.5678 106.463 48.5678C105.564 48.5678 104.831 48.2839 104.263 47.7161C103.695 47.1484 103.411 46.4269 103.411 45.5516C103.411 44.6763 103.695 43.9548 104.263 43.3871C104.831 42.7957 105.564 42.5 106.463 42.5C107.362 42.5 108.095 42.7957 108.663 43.3871C109.231 43.9548 109.515 44.6763 109.515 45.5516C109.515 46.4269 109.231 47.1484 108.663 47.7161ZM103.944 69.5743V50.9807H108.982V69.5743H103.944Z" fill="#FDC500"/>
<path d="M130.289 59V69.5743H125.25V58.5387C125.25 56.1022 124.257 54.8839 122.27 54.8839C121.111 54.8839 120.212 55.2387 119.573 55.9484C118.958 56.6581 118.65 57.6398 118.65 58.8936V69.5743H113.612V50.9807H118.26V53.2516C119.23 51.4538 121.016 50.5549 123.618 50.5549C126.078 50.5549 127.876 51.4301 129.012 53.1807C130.597 51.4301 132.655 50.5549 135.186 50.5549C137.362 50.5549 139.03 51.2291 140.189 52.5774C141.348 53.9258 141.928 55.7237 141.928 57.971V69.5743H136.889V58.5387C136.889 56.1022 135.896 54.8839 133.909 54.8839C132.726 54.8839 131.827 55.2506 131.212 55.9839C130.597 56.6936 130.289 57.699 130.289 59Z" fill="#FDC500"/>
<path fill-rule="evenodd" clip-rule="evenodd" d="M88.6324 12.0668C87.3908 12.0668 86.3842 13.0728 86.3842 14.315C86.3842 15.5568 87.3908 16.5635 88.6324 16.5635C89.8745 16.5635 90.8812 15.5568 90.8812 14.315C90.8812 13.0728 89.8745 12.0668 88.6324 12.0668ZM96.4675 12.0668C95.226 12.0668 94.219 13.0728 94.219 14.315C94.219 15.5568 95.226 16.5635 96.4675 16.5635C97.7094 16.5635 98.716 15.5568 98.716 14.315C98.716 13.0728 97.7094 12.0668 96.4675 12.0668ZM104.391 12.0668C103.149 12.0668 102.142 13.0728 102.142 14.315C102.142 15.5568 103.149 16.5635 104.391 16.5635C105.632 16.5635 106.639 15.5568 106.639 14.315C106.639 13.0728 105.632 12.0668 104.391 12.0668Z" fill="white"/>
<path fill-rule="evenodd" clip-rule="evenodd" d="M82.1607 27.3323L88.4288 24.8132L89.2207 25.0397C91.584 25.715 94.0555 26.0332 96.5117 26.0332C100.711 26.0332 105.145 25.0853 108.785 22.932C111.39 21.3907 113.877 19.0139 114.567 15.9598C114.689 15.4198 114.751 14.869 114.751 14.3153C114.751 13.7615 114.689 13.211 114.567 12.671C113.877 9.61693 111.39 7.23986 108.785 5.69849C105.145 3.54554 100.711 2.59735 96.5117 2.59735C92.3122 2.59735 87.878 3.54554 84.2386 5.69849C81.6336 7.23986 79.1461 9.61693 78.4559 12.671C78.334 13.211 78.2721 13.7615 78.2721 14.3153C78.2721 17.1803 79.9233 19.6085 82.0558 21.3959L83.142 22.3061L82.1607 27.3323ZM96.5117 0.195148C85.1114 0.195148 75.8699 6.51724 75.8699 14.3153C75.8699 17.6993 77.6108 20.8048 80.5127 23.2368L78.9564 31.209L88.5606 27.3493C91.0078 28.0488 93.6937 28.4354 96.5117 28.4354C107.912 28.4354 117.154 22.1136 117.154 14.3153C117.154 6.51724 107.912 0.195148 96.5117 0.195148Z" fill="white"/>
<path fill-rule="evenodd" clip-rule="evenodd" d="M129.841 26.1761C131.083 26.1761 132.09 27.1825 132.09 28.4244C132.09 29.6662 131.083 30.6729 129.841 30.6729C128.599 30.6729 127.592 29.6662 127.592 28.4244C127.592 27.1825 128.599 26.1761 129.841 26.1761ZM122.006 26.1761C123.248 26.1761 124.255 27.1825 124.255 28.4244C124.255 29.6662 123.248 30.6729 122.006 30.6729C120.764 30.6729 119.758 29.6662 119.758 28.4244C119.758 27.1825 120.764 26.1761 122.006 26.1761ZM114.083 26.1761C115.325 26.1761 116.331 27.1825 116.331 28.4244C116.331 29.6662 115.325 30.6729 114.083 30.6729C112.841 30.6729 111.834 29.6662 111.834 28.4244C111.834 27.1825 112.841 26.1761 114.083 26.1761Z" fill="#FDC500"/>
<path fill-rule="evenodd" clip-rule="evenodd" d="M136.313 41.4407L130.045 38.9214L129.254 39.1481C126.89 39.824 124.419 40.1416 121.962 40.1416C117.762 40.1416 113.329 39.1937 109.69 37.0407C107.084 35.4991 104.597 33.122 103.907 30.0682C103.872 29.9124 103.842 29.7558 103.816 29.5983C103.037 29.785 102.25 29.9393 101.459 30.0632C102.647 37.0892 111.373 42.5444 121.962 42.5444C124.78 42.5444 127.466 42.1578 129.914 41.458L139.517 45.3174L137.961 37.3452C140.863 34.9135 142.604 31.808 142.604 28.424C142.604 20.6262 133.363 14.3041 121.962 14.3041C121.013 14.3041 120.079 14.3485 119.164 14.4336C119.155 15.2552 119.062 16.074 118.884 16.8764C119.914 16.7616 120.945 16.706 121.962 16.706C126.162 16.706 130.596 17.6539 134.235 19.8072C136.84 21.3486 139.328 23.7253 140.018 26.7794C140.14 27.3194 140.202 27.8696 140.202 28.424C140.202 31.2884 138.551 33.7172 136.418 35.5037L135.331 36.4142L136.313 41.4407Z" fill="#FDC500"/>
</svg>
