<svg width="28" height="20" viewBox="0 0 28 20" fill="none" xmlns="http://www.w3.org/2000/svg">
<path fill-rule="evenodd" clip-rule="evenodd" d="M5.33197 5.65356C4.82715 5.65356 4.41785 6.06263 4.41785 6.56769C4.41785 7.07263 4.82715 7.48193 5.33197 7.48193C5.83703 7.48193 6.24633 7.07263 6.24633 6.56769C6.24633 6.06263 5.83703 5.65356 5.33197 5.65356ZM8.51774 5.65356C8.01292 5.65356 7.6035 6.06263 7.6035 6.56769C7.6035 7.07263 8.01292 7.48193 8.51774 7.48193C9.02269 7.48193 9.43198 7.07263 9.43198 6.56769C9.43198 6.06263 9.02269 5.65356 8.51774 5.65356ZM11.7393 5.65356C11.2345 5.65356 10.8252 6.06263 10.8252 6.56769C10.8252 7.07263 11.2345 7.48193 11.7393 7.48193C12.2442 7.48193 12.6536 7.07263 12.6536 6.56769C12.6536 6.06263 12.2442 5.65356 11.7393 5.65356Z" fill="#222222"/>
<path fill-rule="evenodd" clip-rule="evenodd" d="M2.70059 11.8603L5.24918 10.836L5.57116 10.9281C6.53209 11.2027 7.53699 11.332 8.53571 11.332C10.2431 11.332 12.0461 10.9466 13.5259 10.0711C14.5852 9.44438 15.5965 8.47798 15.8771 7.23618C15.9266 7.01662 15.9518 6.79266 15.9518 6.56751C15.9518 6.34237 15.9266 6.11853 15.8771 5.89897C15.5965 4.65717 14.5852 3.69065 13.5259 3.06392C12.0461 2.18853 10.2431 1.80299 8.53571 1.80299C6.82817 1.80299 5.02523 2.18853 3.54545 3.06392C2.48626 3.69065 1.47483 4.65717 1.1942 5.89897C1.14466 6.11853 1.11947 6.34237 1.11947 6.56751C1.11947 7.73245 1.79087 8.71976 2.65794 9.44652L3.09956 9.81661L2.70059 11.8603ZM8.53571 0.826256C3.90033 0.826256 0.142731 3.39683 0.142731 6.56751C0.142731 7.94345 0.850603 9.20617 2.0305 10.195L1.39772 13.4365L5.30277 11.8672C6.2978 12.1516 7.3899 12.3088 8.53571 12.3088C13.1711 12.3088 16.9287 9.73832 16.9287 6.56751C16.9287 3.39683 13.1711 0.826256 8.53571 0.826256Z" fill="#222222"/>
<path fill-rule="evenodd" clip-rule="evenodd" d="M22.0875 11.3904C22.5923 11.3904 23.0016 11.7996 23.0016 12.3045C23.0016 12.8094 22.5923 13.2188 22.0875 13.2188C21.5824 13.2188 21.1731 12.8094 21.1731 12.3045C21.1731 11.7996 21.5824 11.3904 22.0875 11.3904ZM18.9017 11.3904C19.4066 11.3904 19.816 11.7996 19.816 12.3045C19.816 12.8094 19.4066 13.2188 18.9017 13.2188C18.3968 13.2188 17.9875 12.8094 17.9875 12.3045C17.9875 11.7996 18.3968 11.3904 18.9017 11.3904ZM15.6802 11.3904C16.185 11.3904 16.5943 11.7996 16.5943 12.3045C16.5943 12.8094 16.185 13.2188 15.6802 13.2188C15.1753 13.2188 14.7658 12.8094 14.7658 12.3045C14.7658 11.7996 15.1753 11.3904 15.6802 11.3904Z" fill="#222222"/>
<path fill-rule="evenodd" clip-rule="evenodd" d="M24.719 17.5971L22.1705 16.5727L21.8486 16.6649C20.8876 16.9397 19.8828 17.0689 18.8838 17.0689C17.1761 17.0689 15.3735 16.6834 13.8939 15.808C12.8343 15.1812 11.823 14.2147 11.5427 12.973C11.5284 12.9097 11.5161 12.846 11.5058 12.7819C11.189 12.8579 10.869 12.9206 10.5475 12.971C11.0304 15.8278 14.5784 18.0458 18.8838 18.0458C20.0297 18.0458 21.1218 17.8886 22.1171 17.6041L26.0218 19.1733L25.389 15.9318C26.5689 14.9431 27.2769 13.6804 27.2769 12.3045C27.2769 9.13389 23.5193 6.56331 18.8838 6.56331C18.4979 6.56331 18.1182 6.58137 17.746 6.61594C17.7426 6.95004 17.7047 7.28294 17.6325 7.60919C18.0513 7.5625 18.4702 7.53993 18.8838 7.53993C20.5914 7.53993 22.3945 7.92535 23.8741 8.80086C24.9333 9.42758 25.9449 10.394 26.2252 11.6358C26.2748 11.8553 26.3002 12.0791 26.3002 12.3045C26.3002 13.4691 25.6287 14.4567 24.7617 15.1831L24.3198 15.5533L24.719 17.5971Z" fill="#222222"/>
</svg>
