<svg width="16" height="16" viewBox="0 0 16 16" fill="none" xmlns="http://www.w3.org/2000/svg">
<path d="M15.1681 7.44223L1.41808 0.567228C1.31031 0.513332 1.18926 0.491737 1.0695 0.505044C0.949746 0.51835 0.836389 0.56599 0.74308 0.642228C0.65397 0.716911 0.587459 0.81497 0.551023 0.92538C0.514587 1.03579 0.509672 1.15418 0.53683 1.26723L2.19308 7.37348H9.26183V8.62348H2.19308L0.51183 14.711C0.486346 14.8054 0.483371 14.9045 0.503145 15.0002C0.522918 15.096 0.564888 15.1858 0.625679 15.2624C0.68647 15.339 0.764386 15.4002 0.853163 15.4413C0.94194 15.4823 1.0391 15.5019 1.13683 15.4985C1.23467 15.4979 1.331 15.4743 1.41808 15.4297L15.1681 8.55473C15.2705 8.50228 15.3564 8.4226 15.4164 8.32445C15.4764 8.22631 15.5081 8.11351 15.5081 7.99848C15.5081 7.88345 15.4764 7.77065 15.4164 7.67251C15.3564 7.57436 15.2705 7.49468 15.1681 7.44223Z" fill="white"/>
</svg>
